<svg version="1.1" id="Layer_1" xmlns="http://www.w3.org/2000/svg" xmlns:xlink="http://www.w3.org/1999/xlink" x="0px" y="0px"
	 width="100%" viewBox="0 0 2475 1275" enable-background="new 0 0 2475 1275" xml:space="preserve">
<path fill="#FFFFFF" opacity="1.000000" stroke="none" 
	d="
M1511.000000,1276.000000 
	C1007.333313,1276.000000 504.166656,1276.000000 1.000000,1276.000000 
	C1.000000,851.000000 1.000000,426.000000 1.000000,1.000000 
	C826.000000,1.000000 1651.000000,1.000000 2476.000000,1.000000 
	C2476.000000,426.000000 2476.000000,851.000000 2476.000000,1276.000000 
	C2154.500000,1276.000000 1833.000000,1276.000000 1511.000000,1276.000000 
M1681.051025,483.196106 
	C1681.051025,431.422333 1681.051025,379.648560 1681.051025,327.025665 
	C1616.049927,333.262512 1556.574463,351.486115 1506.793091,396.706177 
	C1506.793091,375.233124 1506.793091,354.983307 1506.793091,334.781677 
	C1449.410889,334.781677 1392.384521,334.781677 1335.458008,334.781677 
	C1335.458008,535.422119 1335.458008,735.638245 1335.458008,935.798706 
	C1394.310303,935.798706 1452.857666,935.798706 1511.719238,935.798706 
	C1511.719238,933.632202 1511.719116,931.823792 1511.719116,930.015442 
	C1511.719116,903.188538 1511.698120,876.361694 1511.731445,849.534790 
	C1511.742065,841.045410 1511.897827,832.556091 1512.925903,824.072998 
	C1815.836304,824.072998 2118.746826,824.072998 2421.714844,824.072998 
	C2421.714844,710.636169 2421.714844,597.787231 2421.714844,484.649994 
	C2418.950439,484.649994 2416.626465,484.650024 2414.302490,484.650024 
	C2172.329590,484.650024 1930.356567,484.651459 1688.383545,484.629669 
	C1685.900757,484.629456 1683.418091,484.322388 1681.051025,483.196106 
M718.929443,783.585693 
	C734.027771,812.659485 754.024353,837.758423 779.949524,857.893127 
	C820.397522,889.306946 866.708496,904.990662 917.484192,907.977295 
	C951.492493,909.977600 985.003601,906.986145 1017.527161,896.049683 
	C1042.042847,887.805908 1063.883667,874.519348 1085.258301,860.332214 
	C1086.953857,859.206909 1088.714355,858.179565 1090.890747,856.830078 
	C1090.890747,883.585327 1091.049683,909.415222 1090.803955,935.241211 
	C1090.718750,944.208008 1090.271484,953.265564 1088.887451,962.109131 
	C1083.677612,995.399109 1065.516357,1018.234253 1032.782715,1027.885498 
	C1002.557068,1036.797241 971.870422,1036.797363 941.545349,1028.525269 
	C910.091248,1019.945129 888.947449,999.980713 880.527344,968.045288 
	C877.835754,957.836670 877.052856,947.124878 875.376465,936.515381 
	C814.998413,936.515381 754.113403,936.515381 693.091797,936.515381 
	C693.091797,944.866943 692.881287,952.864868 693.132690,960.848206 
	C693.791443,981.770325 697.201782,1002.191101 704.674255,1021.849915 
	C720.806702,1064.291626 750.882446,1093.971313 790.356323,1114.739868 
	C836.809387,1139.180542 887.176025,1148.139648 938.942627,1151.016846 
	C975.969177,1153.074951 1012.898865,1151.647949 1049.667603,1146.908936 
	C1083.452881,1142.554443 1116.408691,1134.852783 1147.661865,1120.911987 
	C1193.499268,1100.465576 1228.615967,1068.927002 1248.662964,1022.158875 
	C1262.463135,989.964417 1267.159790,956.031372 1267.153442,921.240112 
	C1267.118164,727.268127 1267.139648,533.296143 1267.129272,339.324158 
	C1267.129150,337.745880 1266.957520,336.167633 1266.875366,334.750488 
	C1210.970581,334.750488 1155.593872,334.750488 1099.784668,334.750488 
	C1099.784668,353.009827 1099.784668,370.880249 1099.784668,389.365479 
	C1096.180298,386.086395 1093.149536,383.277649 1090.063965,380.530518 
	C1072.029663,364.474365 1052.204468,351.169861 1029.794678,342.001984 
	C986.468994,324.277496 941.458740,320.314575 895.471680,326.888428 
	C835.262756,335.495270 785.970764,363.817078 748.037598,411.317749 
	C710.059448,458.874878 692.333801,514.375122 686.074036,574.070129 
	C682.621338,606.996887 683.160278,639.940613 686.929138,672.833557 
	C691.336792,711.300842 700.809021,748.306396 718.929443,783.585693 
M563.505371,895.013428 
	C604.472046,865.196167 636.905823,827.749390 663.059143,784.041992 
	C618.356445,760.922424 573.972534,737.967773 530.151978,715.304443 
	C524.583496,725.831421 519.938965,736.609131 513.596619,746.272583 
	C476.496521,802.799805 423.811371,828.819702 356.813904,820.378723 
	C299.436218,813.149780 263.053436,778.698730 246.117752,723.729858 
	C240.996216,707.106628 239.382401,689.928589 240.173996,672.086792 
	C383.566071,672.086792 526.610535,672.086792 670.002258,672.086792 
	C670.002258,670.010193 670.083984,668.372131 669.989929,666.744263 
	C668.703491,644.475098 668.278198,622.112366 665.900391,599.959473 
	C661.202454,556.190796 650.005310,514.024841 631.021057,474.153992 
	C600.514587,410.083984 554.015503,362.596069 487.138489,336.573273 
	C444.245026,319.882843 399.490601,314.739502 353.819885,316.189728 
	C316.006287,317.390442 278.998322,323.286377 243.435516,336.709930 
	C168.630661,364.945801 118.349579,417.987793 88.073349,490.993134 
	C70.624977,533.066528 62.070793,577.140320 59.674973,622.523499 
	C57.259895,668.271484 60.883678,713.404907 74.079933,757.416626 
	C97.992821,837.170044 146.324417,896.327820 223.043488,930.491089 
	C279.281738,955.534119 338.609558,961.887939 399.427399,956.293091 
	C459.360077,950.779663 513.963928,930.593872 563.505371,895.013428 
z"/>
<path fill="#201F1F" opacity="1.000000" stroke="none" 
	d="
M718.758789,783.255737 
	C700.809021,748.306396 691.336792,711.300842 686.929138,672.833557 
	C683.160278,639.940613 682.621338,606.996887 686.074036,574.070129 
	C692.333801,514.375122 710.059448,458.874878 748.037598,411.317749 
	C785.970764,363.817078 835.262756,335.495270 895.471680,326.888428 
	C941.458740,320.314575 986.468994,324.277496 1029.794678,342.001984 
	C1052.204468,351.169861 1072.029663,364.474365 1090.063965,380.530518 
	C1093.149536,383.277649 1096.180298,386.086395 1099.784668,389.365479 
	C1099.784668,370.880249 1099.784668,353.009827 1099.784668,334.750488 
	C1155.593872,334.750488 1210.970581,334.750488 1266.875366,334.750488 
	C1266.957520,336.167633 1267.129150,337.745880 1267.129272,339.324158 
	C1267.139648,533.296143 1267.118164,727.268127 1267.153442,921.240112 
	C1267.159790,956.031372 1262.463135,989.964417 1248.662964,1022.158875 
	C1228.615967,1068.927002 1193.499268,1100.465576 1147.661865,1120.911987 
	C1116.408691,1134.852783 1083.452881,1142.554443 1049.667603,1146.908936 
	C1012.898865,1151.647949 975.969177,1153.074951 938.942627,1151.016846 
	C887.176025,1148.139648 836.809387,1139.180542 790.356323,1114.739868 
	C750.882446,1093.971313 720.806702,1064.291626 704.674255,1021.849915 
	C697.201782,1002.191101 693.791443,981.770325 693.132690,960.848206 
	C692.881287,952.864868 693.091797,944.866943 693.091797,936.515381 
	C754.113403,936.515381 814.998413,936.515381 875.376465,936.515381 
	C877.052856,947.124878 877.835754,957.836670 880.527344,968.045288 
	C888.947449,999.980713 910.091248,1019.945129 941.545349,1028.525269 
	C971.870422,1036.797363 1002.557068,1036.797241 1032.782715,1027.885498 
	C1065.516357,1018.234253 1083.677612,995.399109 1088.887451,962.109131 
	C1090.271484,953.265564 1090.718750,944.208008 1090.803955,935.241211 
	C1091.049683,909.415222 1090.890747,883.585327 1090.890747,856.830078 
	C1088.714355,858.179565 1086.953857,859.206909 1085.258301,860.332214 
	C1063.883667,874.519348 1042.042847,887.805908 1017.527161,896.049683 
	C985.003601,906.986145 951.492493,909.977600 917.484192,907.977295 
	C866.708496,904.990662 820.397522,889.306946 779.949524,857.893127 
	C754.024353,837.758423 734.027771,812.659485 718.758789,783.255737 
M872.008301,556.534302 
	C867.591309,579.561829 866.507080,602.827759 867.295410,626.195190 
	C868.195312,652.870972 870.334229,679.389038 878.985413,704.925232 
	C890.077271,737.665833 910.690674,760.770874 945.090454,769.583435 
	C964.384644,774.526245 983.994751,774.999573 1003.611267,771.871460 
	C1031.338745,767.450012 1053.548462,754.216125 1068.507446,729.946472 
	C1076.804688,716.485046 1081.860718,701.755615 1085.043091,686.348267 
	C1091.189819,656.589417 1091.453369,626.464478 1090.438354,596.276611 
	C1089.652710,572.914490 1087.327637,549.762024 1080.008789,527.390259 
	C1069.666260,495.775635 1050.387451,472.676117 1017.727112,462.459778 
	C1001.301025,457.321564 984.416748,455.992096 967.347290,456.986328 
	C936.861938,458.761932 912.477844,471.733490 895.063354,497.124481 
	C882.894287,514.867737 876.416626,534.854675 872.008301,556.534302 
z"/>
<path fill="#201F1F" opacity="1.000000" stroke="none" 
	d="
M563.219604,895.229370 
	C513.963928,930.593872 459.360077,950.779663 399.427399,956.293091 
	C338.609558,961.887939 279.281738,955.534119 223.043488,930.491089 
	C146.324417,896.327820 97.992821,837.170044 74.079933,757.416626 
	C60.883678,713.404907 57.259895,668.271484 59.674973,622.523499 
	C62.070793,577.140320 70.624977,533.066528 88.073349,490.993134 
	C118.349579,417.987793 168.630661,364.945801 243.435516,336.709930 
	C278.998322,323.286377 316.006287,317.390442 353.819885,316.189728 
	C399.490601,314.739502 444.245026,319.882843 487.138489,336.573273 
	C554.015503,362.596069 600.514587,410.083984 631.021057,474.153992 
	C650.005310,514.024841 661.202454,556.190796 665.900391,599.959473 
	C668.278198,622.112366 668.703491,644.475098 669.989929,666.744263 
	C670.083984,668.372131 670.002258,670.010193 670.002258,672.086792 
	C526.610535,672.086792 383.566071,672.086792 240.173996,672.086792 
	C239.382401,689.928589 240.996216,707.106628 246.117752,723.729858 
	C263.053436,778.698730 299.436218,813.149780 356.813904,820.378723 
	C423.811371,828.819702 476.496521,802.799805 513.596619,746.272583 
	C519.938965,736.609131 524.583496,725.831421 530.151978,715.304443 
	C573.972534,737.967773 618.356445,760.922424 663.059143,784.041992 
	C636.905823,827.749390 604.472046,865.196167 563.219604,895.229370 
M441.640442,466.858246 
	C412.807526,445.038788 380.055878,439.274658 345.167145,444.594391 
	C305.182526,450.691101 277.166687,473.880524 258.076630,508.687897 
	C249.068604,525.112427 243.195053,542.660095 240.099350,561.142273 
	C322.453491,561.142273 404.463959,561.142273 486.762115,561.142273 
	C484.556824,523.472839 471.895111,491.342560 441.640442,466.858246 
z"/>
<path fill="#DFAB3B" opacity="1.000000" stroke="none" 
	d="
M1680.935303,484.158569 
	C1683.418091,484.322388 1685.900757,484.629456 1688.383545,484.629669 
	C1930.356567,484.651459 2172.329590,484.650024 2414.302490,484.650024 
	C2416.626465,484.650024 2418.950439,484.649994 2421.714844,484.649994 
	C2421.714844,597.787231 2421.714844,710.636169 2421.714844,824.072998 
	C2118.746826,824.072998 1815.836304,824.072998 1512.366577,823.602417 
	C1511.808228,745.861389 1511.779419,668.590820 1511.862427,591.320435 
	C1511.869751,584.511597 1512.373169,577.679932 1513.049683,570.899231 
	C1515.751709,543.820435 1528.355347,523.581116 1553.691040,511.970245 
	C1574.632324,502.373199 1596.902222,497.820465 1619.386963,494.045380 
	C1639.878784,490.604858 1660.417358,487.443176 1680.935303,484.158569 
M1746.099365,721.219604 
	C1745.517578,713.874634 1744.935791,706.529663 1744.305542,698.573059 
	C1724.940308,700.156067 1705.690308,701.729675 1686.139893,703.327820 
	C1685.429810,714.706909 1686.164429,725.655212 1689.066650,736.449524 
	C1695.351318,759.824768 1709.079346,777.169556 1731.455566,786.658936 
	C1747.850098,793.611572 1765.054688,796.259460 1783.093018,794.292297 
	C1795.164795,792.975769 1806.949463,791.139282 1818.382080,787.044006 
	C1854.286255,774.182983 1876.059814,738.388611 1869.993408,701.093079 
	C1866.720337,680.971069 1855.856689,666.254578 1836.354126,658.720947 
	C1832.297729,657.153992 1828.203003,655.686218 1824.097900,654.162292 
	C1824.286255,653.761108 1824.345581,653.332397 1824.556885,653.235779 
	C1825.595459,652.760437 1826.786499,652.543701 1827.721436,651.928345 
	C1835.256836,646.968323 1843.883789,643.038574 1850.012207,636.700439 
	C1862.507446,623.777344 1866.193481,607.480225 1864.124634,589.629089 
	C1860.880859,561.639587 1845.756104,543.003845 1819.599121,533.819763 
	C1794.329956,524.947510 1768.514404,525.436096 1743.006836,533.212891 
	C1728.489624,537.638916 1716.325684,545.971008 1707.255859,558.377136 
	C1697.062256,572.320374 1692.541870,588.216064 1690.772095,605.711548 
	C1711.026123,607.436523 1730.741089,609.115601 1750.074463,610.762207 
	C1751.110229,604.012695 1751.471924,597.668762 1753.124878,591.681396 
	C1757.007935,577.616760 1768.656616,571.064148 1782.828247,574.325928 
	C1795.626709,577.271667 1801.969971,585.225281 1804.051147,600.957275 
	C1805.949219,615.304688 1796.737305,629.759888 1782.479248,632.045288 
	C1776.486328,633.005798 1770.353638,633.092651 1764.233154,633.580688 
	C1764.233154,647.955444 1764.233154,662.330872 1764.233154,676.838989 
	C1769.255493,676.838989 1773.914185,676.583740 1778.536377,676.885864 
	C1793.627319,677.872437 1804.914185,683.775024 1808.541992,698.466064 
	C1810.030151,704.491821 1809.414917,711.193726 1808.922119,717.523071 
	C1807.285645,738.539673 1788.379761,750.946777 1768.416260,746.211121 
	C1755.727539,743.201172 1749.582397,733.809021 1746.099365,721.219604 
M2163.514160,602.010559 
	C2147.951904,624.245483 2132.844727,646.819458 2116.629639,668.567688 
	C2108.908691,678.923401 2103.906494,689.290588 2105.675293,702.336182 
	C2105.873047,703.793579 2105.469238,705.322754 2105.464355,706.819092 
	C2105.439209,714.723083 2105.452393,722.627197 2105.452393,731.098206 
	C2140.499756,731.098206 2175.038330,731.098206 2209.952148,731.098206 
	C2209.952148,750.943665 2209.952148,770.207214 2209.952148,789.715210 
	C2230.052246,789.715210 2249.767090,789.715210 2269.975098,789.715210 
	C2269.975098,769.863342 2269.975098,750.291138 2269.975098,730.147339 
	C2281.512695,730.147339 2292.570312,730.147339 2303.776611,730.147339 
	C2303.776611,715.995605 2303.776611,702.425354 2303.776611,688.250488 
	C2292.460205,688.250488 2281.403809,688.250488 2269.832520,688.250488 
	C2269.832520,635.933105 2269.832520,584.218445 2269.832520,532.073364 
	C2267.838379,532.073364 2266.374756,532.073364 2264.911133,532.073364 
	C2248.918213,532.073364 2232.923584,532.187073 2216.933350,531.983459 
	C2213.480713,531.939453 2211.583252,533.182922 2209.697510,535.905273 
	C2194.527832,557.804382 2179.208984,579.600159 2163.514160,602.010559 
M1984.547607,790.000305 
	C2001.964722,790.000305 2019.381836,790.000305 2036.772949,790.000305 
	C2036.772949,703.706116 2036.772949,618.138062 2036.772949,532.075806 
	C2022.723633,532.075806 2008.938599,532.180237 1995.157227,531.999512 
	C1991.876343,531.956482 1990.045410,532.862427 1988.653809,535.952271 
	C1982.255249,550.158691 1971.061890,559.492493 1956.548584,564.039490 
	C1946.658081,567.138123 1936.100098,568.080505 1925.880005,570.178833 
	C1924.271851,570.508972 1921.592529,571.828613 1921.570923,572.741638 
	C1921.282227,585.018433 1921.377686,597.304321 1921.377686,610.080200 
	C1940.164062,609.635071 1958.466675,610.212219 1976.161133,601.655518 
	C1976.161133,664.923889 1976.161133,727.314331 1976.161133,790.000305 
	C1978.943481,790.000305 1981.254761,790.000305 1984.547607,790.000305 
z"/>
<path fill="#21201F" opacity="1.000000" stroke="none" 
	d="
M1680.993164,483.677307 
	C1660.417358,487.443176 1639.878784,490.604858 1619.386963,494.045380 
	C1596.902222,497.820465 1574.632324,502.373199 1553.691040,511.970245 
	C1528.355347,523.581116 1515.751709,543.820435 1513.049683,570.899231 
	C1512.373169,577.679932 1511.869751,584.511597 1511.862427,591.320435 
	C1511.779419,668.590820 1511.808228,745.861389 1511.897217,823.599365 
	C1511.897827,832.556091 1511.742065,841.045410 1511.731445,849.534790 
	C1511.698120,876.361694 1511.719116,903.188538 1511.719116,930.015442 
	C1511.719116,931.823792 1511.719238,933.632202 1511.719238,935.798706 
	C1452.857666,935.798706 1394.310303,935.798706 1335.458008,935.798706 
	C1335.458008,735.638245 1335.458008,535.422119 1335.458008,334.781677 
	C1392.384521,334.781677 1449.410889,334.781677 1506.793091,334.781677 
	C1506.793091,354.983307 1506.793091,375.233124 1506.793091,396.706177 
	C1556.574463,351.486115 1616.049927,333.262512 1681.051025,327.025665 
	C1681.051025,379.648560 1681.051025,431.422333 1680.993164,483.677307 
z"/>
<path fill="#FFFFFF" opacity="1.000000" stroke="none" 
	d="
M872.060547,556.110718 
	C876.416626,534.854675 882.894287,514.867737 895.063354,497.124481 
	C912.477844,471.733490 936.861938,458.761932 967.347290,456.986328 
	C984.416748,455.992096 1001.301025,457.321564 1017.727112,462.459778 
	C1050.387451,472.676117 1069.666260,495.775635 1080.008789,527.390259 
	C1087.327637,549.762024 1089.652710,572.914490 1090.438354,596.276611 
	C1091.453369,626.464478 1091.189819,656.589417 1085.043091,686.348267 
	C1081.860718,701.755615 1076.804688,716.485046 1068.507446,729.946472 
	C1053.548462,754.216125 1031.338745,767.450012 1003.611267,771.871460 
	C983.994751,774.999573 964.384644,774.526245 945.090454,769.583435 
	C910.690674,760.770874 890.077271,737.665833 878.985413,704.925232 
	C870.334229,679.389038 868.195312,652.870972 867.295410,626.195190 
	C866.507080,602.827759 867.591309,579.561829 872.060547,556.110718 
z"/>
<path fill="#FEFDFD" opacity="1.000000" stroke="none" 
	d="
M441.929016,467.065613 
	C471.895111,491.342560 484.556824,523.472839 486.762115,561.142273 
	C404.463959,561.142273 322.453491,561.142273 240.099350,561.142273 
	C243.195053,542.660095 249.068604,525.112427 258.076630,508.687897 
	C277.166687,473.880524 305.182526,450.691101 345.167145,444.594391 
	C380.055878,439.274658 412.807526,445.038788 441.929016,467.065613 
z"/>
<path fill="#21201F" opacity="1.000000" stroke="none" 
	d="
M1746.151367,721.635559 
	C1749.582397,733.809021 1755.727539,743.201172 1768.416260,746.211121 
	C1788.379761,750.946777 1807.285645,738.539673 1808.922119,717.523071 
	C1809.414917,711.193726 1810.030151,704.491821 1808.541992,698.466064 
	C1804.914185,683.775024 1793.627319,677.872437 1778.536377,676.885864 
	C1773.914185,676.583740 1769.255493,676.838989 1764.233154,676.838989 
	C1764.233154,662.330872 1764.233154,647.955444 1764.233154,633.580688 
	C1770.353638,633.092651 1776.486328,633.005798 1782.479248,632.045288 
	C1796.737305,629.759888 1805.949219,615.304688 1804.051147,600.957275 
	C1801.969971,585.225281 1795.626709,577.271667 1782.828247,574.325928 
	C1768.656616,571.064148 1757.007935,577.616760 1753.124878,591.681396 
	C1751.471924,597.668762 1751.110229,604.012695 1750.074463,610.762207 
	C1730.741089,609.115601 1711.026123,607.436523 1690.772095,605.711548 
	C1692.541870,588.216064 1697.062256,572.320374 1707.255859,558.377136 
	C1716.325684,545.971008 1728.489624,537.638916 1743.006836,533.212891 
	C1768.514404,525.436096 1794.329956,524.947510 1819.599121,533.819763 
	C1845.756104,543.003845 1860.880859,561.639587 1864.124634,589.629089 
	C1866.193481,607.480225 1862.507446,623.777344 1850.012207,636.700439 
	C1843.883789,643.038574 1835.256836,646.968323 1827.721436,651.928345 
	C1826.786499,652.543701 1825.595459,652.760437 1824.556885,653.235779 
	C1824.345581,653.332397 1824.286255,653.761108 1824.097900,654.162292 
	C1828.203003,655.686218 1832.297729,657.153992 1836.354126,658.720947 
	C1855.856689,666.254578 1866.720337,680.971069 1869.993408,701.093079 
	C1876.059814,738.388611 1854.286255,774.182983 1818.382080,787.044006 
	C1806.949463,791.139282 1795.164795,792.975769 1783.093018,794.292297 
	C1765.054688,796.259460 1747.850098,793.611572 1731.455566,786.658936 
	C1709.079346,777.169556 1695.351318,759.824768 1689.066650,736.449524 
	C1686.164429,725.655212 1685.429810,714.706909 1686.139893,703.327820 
	C1705.690308,701.729675 1724.940308,700.156067 1744.305542,698.573059 
	C1744.935791,706.529663 1745.517578,713.874634 1746.151367,721.635559 
z"/>
<path fill="#21201F" opacity="1.000000" stroke="none" 
	d="
M2163.725098,601.719055 
	C2179.208984,579.600159 2194.527832,557.804382 2209.697510,535.905273 
	C2211.583252,533.182922 2213.480713,531.939453 2216.933350,531.983459 
	C2232.923584,532.187073 2248.918213,532.073364 2264.911133,532.073364 
	C2266.374756,532.073364 2267.838379,532.073364 2269.832520,532.073364 
	C2269.832520,584.218445 2269.832520,635.933105 2269.832520,688.250488 
	C2281.403809,688.250488 2292.460205,688.250488 2303.776611,688.250488 
	C2303.776611,702.425354 2303.776611,715.995605 2303.776611,730.147339 
	C2292.570312,730.147339 2281.512695,730.147339 2269.975098,730.147339 
	C2269.975098,750.291138 2269.975098,769.863342 2269.975098,789.715210 
	C2249.767090,789.715210 2230.052246,789.715210 2209.952148,789.715210 
	C2209.952148,770.207214 2209.952148,750.943665 2209.952148,731.098206 
	C2175.038330,731.098206 2140.499756,731.098206 2105.452393,731.098206 
	C2105.452393,722.627197 2105.439209,714.723083 2105.464355,706.819092 
	C2105.469238,705.322754 2105.873047,703.793579 2105.675293,702.336182 
	C2103.906494,689.290588 2108.908691,678.923401 2116.629639,668.567688 
	C2132.844727,646.819458 2147.951904,624.245483 2163.725098,601.719055 
M2169.884521,657.362427 
	C2163.144287,667.365479 2156.404297,677.368469 2149.200439,688.059448 
	C2170.040039,688.059448 2189.766846,688.059448 2209.690918,688.059448 
	C2209.690918,658.366821 2209.690918,628.908813 2209.690918,598.292297 
	C2196.105225,618.426514 2183.177490,637.585449 2169.884521,657.362427 
z"/>
<path fill="#201F1F" opacity="1.000000" stroke="none" 
	d="
M1984.056763,790.000305 
	C1981.254761,790.000305 1978.943481,790.000305 1976.161133,790.000305 
	C1976.161133,727.314331 1976.161133,664.923889 1976.161133,601.655518 
	C1958.466675,610.212219 1940.164062,609.635071 1921.377686,610.080200 
	C1921.377686,597.304321 1921.282227,585.018433 1921.570923,572.741638 
	C1921.592529,571.828613 1924.271851,570.508972 1925.880005,570.178833 
	C1936.100098,568.080505 1946.658081,567.138123 1956.548584,564.039490 
	C1971.061890,559.492493 1982.255249,550.158691 1988.653809,535.952271 
	C1990.045410,532.862427 1991.876343,531.956482 1995.157227,531.999512 
	C2008.938599,532.180237 2022.723633,532.075806 2036.772949,532.075806 
	C2036.772949,618.138062 2036.772949,703.706116 2036.772949,790.000305 
	C2019.381836,790.000305 2001.964722,790.000305 1984.056763,790.000305 
z"/>
<path fill="#DEAA3B" opacity="1.000000" stroke="none" 
	d="
M2170.067139,657.053406 
	C2183.177490,637.585449 2196.105225,618.426514 2209.690918,598.292297 
	C2209.690918,628.908813 2209.690918,658.366821 2209.690918,688.059448 
	C2189.766846,688.059448 2170.040039,688.059448 2149.200439,688.059448 
	C2156.404297,677.368469 2163.144287,667.365479 2170.067139,657.053406 
z"/>
</svg>